<?xml version="1.0" standalone="no"?>
<!DOCTYPE svg PUBLIC "-//W3C//DTD SVG 20010904//EN"
 "http://www.w3.org/TR/2001/REC-SVG-20010904/DTD/svg10.dtd">
<svg version="1.0" xmlns="http://www.w3.org/2000/svg"
 width="1500.000000pt" height="500.000000pt" viewBox="0 0 1500.000000 500.000000"
 preserveAspectRatio="xMidYMid meet">

<g transform="translate(0.000000,500.000000) scale(0.100000,-0.100000)"
fill="#000000" stroke="none">
<path d="M3080 3639 c-101 -7 -195 -32 -260 -70 -8 -5 -28 -15 -45 -22 -41
-19 -132 -91 -177 -141 -48 -52 -123 -163 -133 -196 -4 -14 -11 -30 -16 -35
-4 -6 -12 -29 -18 -50 -5 -22 -15 -60 -21 -85 -18 -67 -6 -299 18 -380 41
-134 107 -288 163 -375 10 -16 23 -39 29 -50 17 -34 144 -207 189 -259 14 -16
91 -96 170 -178 110 -113 150 -148 169 -148 19 0 59 34 166 143 78 78 171 180
207 227 78 102 159 217 159 227 0 3 6 14 14 22 8 9 38 63 66 121 28 58 55 112
59 120 5 9 12 31 16 50 4 19 11 40 15 45 8 9 19 58 40 175 29 153 -9 348 -97
501 -40 68 -136 175 -195 214 -23 17 -45 33 -48 36 -10 12 -144 71 -194 86
-73 20 -178 29 -276 22z m155 -363 c81 -18 116 -38 190 -108 206 -192 152
-521 -105 -649 -61 -30 -71 -32 -170 -32 -92 0 -112 4 -163 27 -63 29 -147
101 -181 156 -43 69 -60 131 -60 222 -1 57 3 91 12 99 6 7 12 20 12 29 0 23
74 136 108 165 39 35 116 75 170 90 63 17 115 17 187 1z"/>
<path d="M6793 3619 c-57 -10 -112 -23 -122 -29 -11 -5 -28 -10 -37 -10 -21 0
-127 -50 -209 -99 -71 -41 -130 -95 -184 -165 -43 -56 -111 -182 -111 -206 0
-9 -4 -20 -9 -25 -4 -6 -19 -50 -32 -100 -22 -84 -24 -108 -23 -355 0 -239 2
-273 22 -350 35 -138 68 -218 120 -294 114 -164 261 -256 507 -317 28 -7 141
-14 252 -17 174 -3 219 -1 330 18 70 11 142 25 158 30 130 40 172 55 183 63 9
7 12 120 12 502 l0 493 -31 6 c-52 10 -645 7 -673 -4 l-26 -10 0 -130 0 -130
26 -10 c14 -6 88 -10 164 -10 l138 0 6 -26 c9 -33 6 -428 -3 -441 -31 -45
-342 -61 -460 -23 -106 33 -178 94 -229 190 -94 176 -112 611 -35 815 37 97
92 174 165 231 55 43 174 81 278 88 93 6 298 -7 345 -23 17 -5 50 -14 75 -20
25 -7 69 -18 98 -26 30 -8 58 -13 63 -9 5 3 9 69 9 148 0 126 -2 145 -18 159
-10 10 -24 17 -30 17 -6 0 -26 6 -44 14 -61 25 -105 36 -224 56 -148 24 -313
24 -451 -1z"/>
<path d="M547 3604 c-4 -4 -7 -566 -7 -1248 l0 -1241 39 -45 39 -45 6676 -3
6676 -2 5 -23 c3 -12 6 -58 7 -102 3 -76 4 -80 29 -89 20 -7 37 -4 70 11 24
12 76 35 114 53 39 18 97 45 130 60 33 16 87 40 120 55 75 34 131 60 268 124
101 48 108 53 105 78 -3 31 -3 31 -163 104 -60 28 -139 64 -175 81 -66 30 -90
41 -215 98 -38 17 -83 37 -100 45 -138 64 -138 64 -162 48 -21 -14 -23 -23
-23 -97 0 -44 -4 -87 -8 -94 -7 -10 -1311 -12 -6511 -12 -3577 0 -6507 3
-6512 6 -10 6 -13 1112 -3 1138 5 14 47 16 365 16 344 0 359 -1 369 -19 6 -13
10 -163 10 -421 l0 -400 203 2 202 3 3 937 c1 611 -1 946 -8 963 l-10 26 -193
-3 -192 -3 -5 -385 -5 -385 -370 0 -370 0 -5 385 -5 385 -190 3 c-105 2 -194
0 -198 -4z"/>
<path d="M4223 3604 c-10 -5 -13 -207 -13 -965 l0 -959 170 0 170 0 0 659 c0
363 3 666 6 675 10 25 53 -34 129 -176 14 -26 50 -89 81 -140 31 -50 60 -101
65 -113 9 -21 15 -30 62 -103 15 -24 27 -46 27 -49 0 -3 29 -53 64 -112 34
-58 66 -113 70 -121 3 -8 19 -36 34 -61 38 -63 151 -260 186 -322 15 -29 40
-70 55 -92 l27 -40 204 0 205 0 0 960 0 960 -185 0 -185 0 -3 -610 c-1 -335
-6 -613 -11 -618 -8 -8 -50 58 -121 188 -18 33 -39 67 -46 76 -8 8 -14 19 -14
23 0 5 -13 28 -30 53 -16 24 -30 48 -30 53 0 5 -12 28 -27 52 -16 24 -34 52
-41 63 -7 11 -17 32 -23 48 -6 15 -15 27 -20 27 -5 0 -9 5 -9 11 0 5 -35 70
-78 142 -43 73 -82 139 -85 147 -4 8 -16 29 -27 45 -11 17 -23 37 -27 45 -4 8
-38 67 -75 131 -49 84 -75 118 -91 121 -34 6 -400 8 -414 2z"/>
<path d="M8733 3603 c-13 -3 -25 -14 -28 -26 -3 -12 -4 -443 -3 -957 l3 -935
175 0 175 0 5 682 c3 375 7 684 10 687 3 3 16 -30 29 -72 12 -42 29 -95 37
-117 8 -23 14 -47 14 -55 0 -8 6 -27 14 -41 7 -14 16 -43 20 -64 4 -20 11 -45
16 -54 7 -14 22 -61 98 -306 8 -27 20 -66 27 -85 7 -19 20 -62 30 -95 38 -128
48 -161 60 -195 7 -19 27 -82 44 -140 52 -169 25 -150 210 -150 l159 0 22 73
c12 39 27 83 33 97 5 14 13 41 17 60 5 19 14 51 20 70 35 97 32 88 105 325 21
66 50 158 65 205 15 47 49 153 75 235 26 83 53 168 61 190 7 22 15 53 19 69 5
22 9 26 18 17 9 -9 13 -180 17 -674 l5 -662 195 0 195 0 0 952 c0 523 -4 955
-8 960 -10 9 -457 17 -504 8 -26 -5 -34 -12 -43 -43 -6 -20 -15 -46 -20 -57
-4 -11 -16 -45 -24 -75 -47 -156 -59 -198 -71 -230 -7 -19 -27 -82 -45 -140
-18 -58 -38 -121 -45 -140 -27 -77 -45 -138 -45 -151 0 -8 -6 -26 -14 -41 -8
-14 -17 -45 -21 -67 -4 -23 -10 -43 -15 -46 -4 -3 -11 -21 -15 -41 -3 -20 -10
-44 -15 -53 -4 -9 -18 -50 -30 -91 -23 -81 -49 -150 -61 -164 -4 -5 -11 4 -14
20 -3 16 -13 44 -21 62 -8 18 -14 39 -14 47 0 8 -6 29 -14 47 -7 18 -28 80
-46 138 -18 58 -45 143 -60 190 -15 47 -45 139 -65 205 -21 66 -43 136 -50
155 -7 19 -21 62 -30 95 -10 33 -23 76 -30 95 -7 19 -30 88 -50 153 -29 92
-43 121 -59 127 -21 8 -472 11 -513 3z"/>
<path d="M11611 3601 c-19 -5 -30 -22 -53 -86 -75 -209 -91 -255 -114 -325
-14 -41 -29 -84 -34 -95 -12 -25 -40 -104 -46 -130 -3 -11 -10 -29 -15 -40
-10 -23 -96 -265 -109 -308 -11 -34 -69 -194 -81 -222 -12 -29 -39 -105 -49
-140 -4 -16 -18 -55 -30 -85 -12 -30 -24 -66 -27 -80 -3 -14 -9 -29 -13 -35
-4 -5 -13 -26 -18 -45 -6 -19 -27 -80 -47 -135 -49 -135 -64 -183 -57 -189 8
-9 345 -7 358 2 10 7 34 69 54 137 11 38 37 114 82 235 l24 65 331 3 331 2 21
-26 c12 -15 21 -35 21 -46 0 -11 5 -29 12 -41 6 -12 15 -35 19 -52 4 -16 24
-75 44 -130 20 -55 40 -111 44 -125 l7 -25 199 -3 c109 -1 202 1 207 6 9 9 2
36 -80 267 -33 94 -66 186 -72 205 -7 19 -19 50 -26 68 -8 18 -14 41 -14 50 0
10 -4 22 -9 28 -5 5 -14 25 -19 44 -6 19 -27 80 -47 135 -20 55 -41 116 -46
135 -5 19 -14 44 -19 55 -5 11 -19 49 -30 85 -12 36 -25 74 -30 85 -10 22 -45
120 -90 255 -50 146 -60 174 -70 192 -6 10 -10 26 -10 35 0 10 -7 31 -15 47
-8 15 -15 33 -15 40 0 6 -6 23 -14 38 -8 15 -17 41 -21 59 -4 17 -16 47 -27
66 l-21 34 -181 -2 c-99 -1 -192 -5 -205 -8z m218 -623 c24 -73 48 -146 54
-163 5 -16 15 -46 22 -65 7 -19 18 -51 24 -70 7 -19 17 -48 21 -65 14 -48 39
-119 50 -137 27 -48 26 -49 -222 -46 l-233 3 3 40 c2 22 7 44 12 50 5 6 13 29
19 50 5 22 15 56 22 75 6 19 17 51 24 70 7 19 18 51 24 70 7 19 17 49 21 65
44 152 88 254 110 255 3 0 25 -60 49 -132z"/>
<path d="M12938 3603 c-18 -3 -30 -12 -33 -26 -3 -12 -4 -443 -3 -957 l3 -935
189 -3 c104 -1 193 1 197 5 5 5 9 154 9 333 1 207 6 330 12 338 8 9 62 12 207
12 251 1 399 27 502 89 19 12 43 25 54 30 21 9 131 123 152 156 21 33 43 86
66 155 18 55 21 88 21 215 0 166 -12 222 -74 330 -66 115 -216 210 -370 235
-30 5 -66 12 -80 16 -27 8 -808 14 -852 7z m736 -313 c91 -15 157 -52 182
-103 45 -90 54 -177 30 -287 -24 -113 -59 -158 -154 -201 -40 -17 -73 -21
-222 -26 -157 -5 -178 -4 -193 11 -15 15 -17 47 -16 304 0 187 4 291 11 299
13 16 272 18 362 3z"/>
</g>
</svg>
