<svg width="136" height="116" viewBox="0 0 136 116" fill="none" xmlns="http://www.w3.org/2000/svg">
<rect width="136" height="116" fill="white"/>
<g filter="url(#filter0_d_412_56)">
<path d="M35.9628 80.856H55.5708V82.488H35.9628V80.856ZM44.7708 77.376H46.7388V81.528H44.7708V77.376ZM38.4348 76.752H53.2908V78.384H38.4348V76.752ZM38.4348 71.16H53.1228V72.768H40.4028V77.712H38.4348V71.16ZM45.7308 84.048C50.3628 84.048 53.1708 85.464 53.1708 87.936C53.1708 90.456 50.3628 91.848 45.7308 91.848C41.0988 91.848 38.2908 90.456 38.2908 87.936C38.2908 85.464 41.0988 84.048 45.7308 84.048ZM45.7308 85.584C42.3468 85.584 40.3068 86.448 40.3068 87.936C40.3068 89.448 42.3468 90.288 45.7308 90.288C49.1388 90.288 51.1548 89.448 51.1548 87.936C51.1548 86.448 49.1388 85.584 45.7308 85.584ZM63.9209 71.832C67.1129 71.832 69.3689 74.784 69.3689 79.392C69.3689 84.024 67.1129 86.976 63.9209 86.976C60.7289 86.976 58.4729 84.024 58.4729 79.392C58.4729 74.784 60.7289 71.832 63.9209 71.832ZM63.9209 73.632C61.8089 73.632 60.3689 75.888 60.3689 79.392C60.3689 82.92 61.8089 85.224 63.9209 85.224C66.0089 85.224 67.4729 82.92 67.4729 79.392C67.4729 75.888 66.0089 73.632 63.9209 73.632ZM72.8249 70.176H74.8409V91.872H72.8249V70.176ZM74.3609 78.84H78.3929V80.52H74.3609V78.84ZM96.1511 70.152H98.1431V91.896H96.1511V70.152ZM81.6071 85.008H83.4071C87.0311 85.008 90.2711 84.864 94.1111 84.24L94.3271 85.872C90.3911 86.52 87.1271 86.664 83.4071 86.664H81.6071V85.008ZM81.5591 72.192H91.5911V79.944H83.5991V85.632H81.6071V78.312H89.5751V73.824H81.5591V72.192Z" fill="black"/>
</g>
<path d="M68 37.875C69.9675 37.875 71.5625 36.28 71.5625 34.3125C71.5625 32.345 69.9675 30.75 68 30.75C66.0325 30.75 64.4375 32.345 64.4375 34.3125C64.4375 36.28 66.0325 37.875 68 37.875Z" stroke="black" stroke-width="2" stroke-miterlimit="10" stroke-linecap="round" stroke-linejoin="round"/>
<path d="M57.6688 55.6875C59.6363 55.6875 61.2313 54.0925 61.2313 52.125C61.2313 50.1575 59.6363 48.5625 57.6688 48.5625C55.7012 48.5625 54.1063 50.1575 54.1063 52.125C54.1063 54.0925 55.7012 55.6875 57.6688 55.6875Z" stroke="black" stroke-width="2" stroke-miterlimit="10" stroke-linecap="round" stroke-linejoin="round"/>
<path d="M78.3313 55.6875C80.2988 55.6875 81.8938 54.0925 81.8938 52.125C81.8938 50.1575 80.2988 48.5625 78.3313 48.5625C76.3637 48.5625 74.7688 50.1575 74.7688 52.125C74.7688 54.0925 76.3637 55.6875 78.3313 55.6875Z" stroke="black" stroke-width="2" stroke-miterlimit="10" stroke-linecap="round" stroke-linejoin="round"/>
<path d="M76.075 54.8563C73.9375 56.875 71.0875 58.0625 68 58.0625C64.9125 58.0625 62.0625 56.875 59.925 54.8563" stroke="black" stroke-width="2" stroke-miterlimit="10" stroke-linecap="round" stroke-linejoin="round"/>
<path d="M71.5625 34.9062C76.4312 36.45 79.875 40.9625 79.875 46.1875C79.875 47.0187 79.7562 47.85 79.6375 48.6813" stroke="black" stroke-width="2" stroke-miterlimit="10" stroke-linecap="round" stroke-linejoin="round"/>
<path d="M56.3625 48.8C56.2437 47.9688 56.125 47.1375 56.125 46.1875C56.125 40.8438 59.5688 36.3313 64.4375 34.9062" stroke="black" stroke-width="2" stroke-miterlimit="10" stroke-linecap="round" stroke-linejoin="round"/>
<defs>
<filter id="filter0_d_412_56" x="31.9628" y="70.152" width="70.1803" height="29.744" filterUnits="userSpaceOnUse" color-interpolation-filters="sRGB">
<feFlood flood-opacity="0" result="BackgroundImageFix"/>
<feColorMatrix in="SourceAlpha" type="matrix" values="0 0 0 0 0 0 0 0 0 0 0 0 0 0 0 0 0 0 127 0" result="hardAlpha"/>
<feOffset dy="4"/>
<feGaussianBlur stdDeviation="2"/>
<feComposite in2="hardAlpha" operator="out"/>
<feColorMatrix type="matrix" values="0 0 0 0 0 0 0 0 0 0 0 0 0 0 0 0 0 0 0.25 0"/>
<feBlend mode="normal" in2="BackgroundImageFix" result="effect1_dropShadow_412_56"/>
<feBlend mode="normal" in="SourceGraphic" in2="effect1_dropShadow_412_56" result="shape"/>
</filter>
</defs>
</svg>
