<svg width="136" height="116" viewBox="0 0 136 116" fill="none" xmlns="http://www.w3.org/2000/svg">
<rect width="136" height="116" fill="white"/>
<path d="M79.062 29.5576L74.1244 26V31.0123H53.685C52.7544 31.0123 52 31.9538 52 33.1149V58H55.3701V35.2175H74.1243V40.2297L79.062 36.6723L84 33.1148L79.062 29.5576Z" fill="black"/>
<g filter="url(#filter0_d_412_43)">
<path d="M51.7308 70.176H53.7468V81.24H51.7308V70.176ZM45.1068 71.232H47.2908C47.2908 76.776 43.4268 80.208 37.0428 81.696L36.3228 80.064C42.0348 78.816 45.1068 76.008 45.1068 72.24V71.232ZM37.4028 71.232H46.4508V72.864H37.4028V71.232ZM39.7068 82.296H53.7468V87.576H41.7228V90.864H39.7548V86.088H51.7548V83.88H39.7068V82.296ZM39.7548 90.072H54.4668V91.656H39.7548V90.072ZM63.5609 73.752H65.1929V74.688C65.1929 78.384 62.7449 81.384 59.0969 82.536L58.1609 80.976C61.3769 79.992 63.5609 77.52 63.5609 74.688V73.752ZM63.9209 73.752H65.5529V74.688C65.5529 77.28 67.6649 79.632 70.8569 80.568L69.9209 82.104C66.2969 81.024 63.9209 78.144 63.9209 74.688V73.752ZM58.7609 72.696H70.3289V74.304H58.7609V72.696ZM63.5609 70.08H65.5529V73.368H63.5609V70.08ZM72.9929 70.176H74.9849V82.776H72.9929V70.176ZM74.4329 75.528H78.2009V77.184H74.4329V75.528ZM67.2089 84.576H68.9129V85.152C68.9129 88.56 65.3129 91.08 61.0649 91.8L60.2969 90.264C64.0409 89.688 67.2089 87.576 67.2089 85.152V84.576ZM67.5929 84.576H69.2969V85.152C69.2969 87.528 72.5129 89.688 76.1849 90.288L75.4409 91.824C71.1929 91.104 67.5929 88.488 67.5929 85.152V84.576ZM61.1369 83.952H75.3689V85.56H61.1369V83.952ZM96.1511 70.176H98.1431V91.872H96.1511V70.176ZM89.7911 72.504H91.7591C91.7591 78.792 88.9271 84.288 81.6791 87.84L80.6231 86.232C86.8871 83.208 89.7911 78.6 89.7911 72.84V72.504ZM81.6071 72.504H90.6551V74.136H81.6071V72.504Z" fill="black"/>
</g>
<defs>
<filter id="filter0_d_412_43" x="32.3228" y="70.08" width="69.8203" height="29.792" filterUnits="userSpaceOnUse" color-interpolation-filters="sRGB">
<feFlood flood-opacity="0" result="BackgroundImageFix"/>
<feColorMatrix in="SourceAlpha" type="matrix" values="0 0 0 0 0 0 0 0 0 0 0 0 0 0 0 0 0 0 127 0" result="hardAlpha"/>
<feOffset dy="4"/>
<feGaussianBlur stdDeviation="2"/>
<feComposite in2="hardAlpha" operator="out"/>
<feColorMatrix type="matrix" values="0 0 0 0 0 0 0 0 0 0 0 0 0 0 0 0 0 0 0.25 0"/>
<feBlend mode="normal" in2="BackgroundImageFix" result="effect1_dropShadow_412_43"/>
<feBlend mode="normal" in="SourceGraphic" in2="effect1_dropShadow_412_43" result="shape"/>
</filter>
</defs>
</svg>
